<mxfile host="app.diagrams.net" modified="2023-11-16T03:59:39.612Z" agent="Mozilla/5.0 (Windows NT 10.0; Win64; x64; rv:109.0) Gecko/20100101 Firefox/119.0" etag="WzUHZGZQFRaEVGAnVYzl" version="22.1.2" type="device">
  <diagram name="Страница — 1" id="BGVivmdMPbJRiv8pt6Tk">
    <mxGraphModel dx="1732" dy="2822" grid="1" gridSize="10" guides="1" tooltips="1" connect="1" arrows="1" fold="1" page="1" pageScale="1" pageWidth="827" pageHeight="1169" math="1" shadow="0">
      <root>
        <mxCell id="0" />
        <mxCell id="1" parent="0" />
        <mxCell id="85KC1QcqC5Q0MYwyu4rf-2" value="" style="edgeStyle=none;curved=1;rounded=0;orthogonalLoop=1;jettySize=auto;html=1;fontSize=12;startSize=8;endSize=8;" edge="1" parent="1" source="VHtgcgVGDUhuNv95dtVm-1" target="85KC1QcqC5Q0MYwyu4rf-1">
          <mxGeometry relative="1" as="geometry" />
        </mxCell>
        <mxCell id="VHtgcgVGDUhuNv95dtVm-1" value="&lt;div style=&quot;font-size: 13px;&quot;&gt;&lt;font style=&quot;font-size: 13px;&quot;&gt;Начало&lt;/font&gt;&lt;/div&gt;" style="ellipse;whiteSpace=wrap;html=1;" parent="1" vertex="1">
          <mxGeometry x="560" y="-2320" width="120" height="80" as="geometry" />
        </mxCell>
        <mxCell id="85KC1QcqC5Q0MYwyu4rf-5" value="" style="edgeStyle=none;curved=1;rounded=0;orthogonalLoop=1;jettySize=auto;html=1;fontSize=12;startSize=8;endSize=8;" edge="1" parent="1" source="85KC1QcqC5Q0MYwyu4rf-1" target="85KC1QcqC5Q0MYwyu4rf-3">
          <mxGeometry relative="1" as="geometry" />
        </mxCell>
        <mxCell id="85KC1QcqC5Q0MYwyu4rf-1" value="&lt;div style=&quot;font-size: 13px;&quot;&gt;&lt;font style=&quot;font-size: 13px;&quot;&gt;v&lt;/font&gt;&lt;/div&gt;&lt;div style=&quot;font-size: 13px;&quot;&gt;&lt;font style=&quot;font-size: 13px;&quot;&gt;string input&lt;font style=&quot;font-size: 13px;&quot;&gt;&lt;br&gt;&lt;/font&gt;&lt;/font&gt;&lt;/div&gt;" style="shape=parallelogram;perimeter=parallelogramPerimeter;whiteSpace=wrap;html=1;fixedSize=1;fontSize=16;" vertex="1" parent="1">
          <mxGeometry x="560" y="-2210" width="120" height="60" as="geometry" />
        </mxCell>
        <mxCell id="85KC1QcqC5Q0MYwyu4rf-18" style="edgeStyle=none;curved=1;rounded=0;orthogonalLoop=1;jettySize=auto;html=1;entryX=1;entryY=0.5;entryDx=0;entryDy=0;fontSize=12;startSize=8;endSize=8;" edge="1" parent="1" source="85KC1QcqC5Q0MYwyu4rf-3" target="85KC1QcqC5Q0MYwyu4rf-17">
          <mxGeometry relative="1" as="geometry" />
        </mxCell>
        <mxCell id="85KC1QcqC5Q0MYwyu4rf-19" value="&lt;font style=&quot;font-size: 13px;&quot;&gt;ложь&lt;/font&gt;" style="edgeLabel;html=1;align=center;verticalAlign=middle;resizable=0;points=[];fontSize=16;" vertex="1" connectable="0" parent="85KC1QcqC5Q0MYwyu4rf-18">
          <mxGeometry x="-0.225" y="3" relative="1" as="geometry">
            <mxPoint as="offset" />
          </mxGeometry>
        </mxCell>
        <mxCell id="85KC1QcqC5Q0MYwyu4rf-69" style="edgeStyle=none;curved=1;rounded=0;orthogonalLoop=1;jettySize=auto;html=1;fontSize=12;startSize=8;endSize=8;" edge="1" parent="1" source="85KC1QcqC5Q0MYwyu4rf-3">
          <mxGeometry relative="1" as="geometry">
            <mxPoint x="620" y="-1438" as="targetPoint" />
          </mxGeometry>
        </mxCell>
        <mxCell id="85KC1QcqC5Q0MYwyu4rf-70" value="&lt;font style=&quot;font-size: 13px;&quot;&gt;истина&lt;/font&gt;" style="edgeLabel;html=1;align=center;verticalAlign=middle;resizable=0;points=[];fontSize=16;" vertex="1" connectable="0" parent="85KC1QcqC5Q0MYwyu4rf-69">
          <mxGeometry x="-0.5382" y="-1" relative="1" as="geometry">
            <mxPoint as="offset" />
          </mxGeometry>
        </mxCell>
        <mxCell id="85KC1QcqC5Q0MYwyu4rf-3" value="&lt;font style=&quot;font-size: 13px;&quot;&gt;input.size() == 0&lt;/font&gt;" style="rhombus;whiteSpace=wrap;html=1;fontSize=16;" vertex="1" parent="1">
          <mxGeometry x="560" y="-2120" width="120" height="80" as="geometry" />
        </mxCell>
        <mxCell id="85KC1QcqC5Q0MYwyu4rf-21" value="" style="edgeStyle=none;curved=1;rounded=0;orthogonalLoop=1;jettySize=auto;html=1;fontSize=12;startSize=8;endSize=8;" edge="1" parent="1" source="85KC1QcqC5Q0MYwyu4rf-17" target="85KC1QcqC5Q0MYwyu4rf-20">
          <mxGeometry relative="1" as="geometry" />
        </mxCell>
        <mxCell id="85KC1QcqC5Q0MYwyu4rf-22" value="&lt;font style=&quot;font-size: 13px;&quot;&gt;истина&lt;/font&gt;" style="edgeLabel;html=1;align=center;verticalAlign=middle;resizable=0;points=[];fontSize=16;" vertex="1" connectable="0" parent="85KC1QcqC5Q0MYwyu4rf-21">
          <mxGeometry x="-0.25" relative="1" as="geometry">
            <mxPoint as="offset" />
          </mxGeometry>
        </mxCell>
        <mxCell id="85KC1QcqC5Q0MYwyu4rf-26" value="" style="edgeStyle=none;curved=1;rounded=0;orthogonalLoop=1;jettySize=auto;html=1;fontSize=12;startSize=8;endSize=8;exitX=0;exitY=0.5;exitDx=0;exitDy=0;entryX=0.5;entryY=0;entryDx=0;entryDy=0;" edge="1" parent="1" source="85KC1QcqC5Q0MYwyu4rf-17" target="85KC1QcqC5Q0MYwyu4rf-25">
          <mxGeometry relative="1" as="geometry">
            <mxPoint x="310" y="-2080" as="sourcePoint" />
          </mxGeometry>
        </mxCell>
        <mxCell id="85KC1QcqC5Q0MYwyu4rf-27" value="&lt;font style=&quot;font-size: 13px;&quot;&gt;ложь&lt;/font&gt;" style="edgeLabel;html=1;align=center;verticalAlign=middle;resizable=0;points=[];fontSize=16;" vertex="1" connectable="0" parent="85KC1QcqC5Q0MYwyu4rf-26">
          <mxGeometry x="-0.025" y="-2" relative="1" as="geometry">
            <mxPoint as="offset" />
          </mxGeometry>
        </mxCell>
        <mxCell id="85KC1QcqC5Q0MYwyu4rf-17" value="v == 1" style="rhombus;whiteSpace=wrap;html=1;fontSize=16;" vertex="1" parent="1">
          <mxGeometry x="360" y="-2120" width="120" height="80" as="geometry" />
        </mxCell>
        <mxCell id="85KC1QcqC5Q0MYwyu4rf-24" value="" style="edgeStyle=none;curved=1;rounded=0;orthogonalLoop=1;jettySize=auto;html=1;fontSize=12;startSize=8;endSize=8;" edge="1" parent="1" source="85KC1QcqC5Q0MYwyu4rf-20" target="85KC1QcqC5Q0MYwyu4rf-23">
          <mxGeometry relative="1" as="geometry" />
        </mxCell>
        <mxCell id="85KC1QcqC5Q0MYwyu4rf-20" value="цикл " style="rhombus;whiteSpace=wrap;html=1;fontSize=16;" vertex="1" parent="1">
          <mxGeometry x="360" y="-2000" width="120" height="80" as="geometry" />
        </mxCell>
        <mxCell id="85KC1QcqC5Q0MYwyu4rf-50" value="" style="edgeStyle=none;curved=1;rounded=0;orthogonalLoop=1;jettySize=auto;html=1;fontSize=12;startSize=8;endSize=8;" edge="1" parent="1" source="85KC1QcqC5Q0MYwyu4rf-23" target="85KC1QcqC5Q0MYwyu4rf-49">
          <mxGeometry relative="1" as="geometry" />
        </mxCell>
        <mxCell id="85KC1QcqC5Q0MYwyu4rf-76" value="&lt;font style=&quot;font-size: 13px;&quot;&gt;истина&lt;/font&gt;" style="edgeLabel;html=1;align=center;verticalAlign=middle;resizable=0;points=[];fontSize=16;" vertex="1" connectable="0" parent="85KC1QcqC5Q0MYwyu4rf-50">
          <mxGeometry x="-0.3" y="1" relative="1" as="geometry">
            <mxPoint as="offset" />
          </mxGeometry>
        </mxCell>
        <mxCell id="85KC1QcqC5Q0MYwyu4rf-81" style="edgeStyle=none;curved=1;rounded=0;orthogonalLoop=1;jettySize=auto;html=1;entryX=0;entryY=0.5;entryDx=0;entryDy=0;fontSize=12;startSize=8;endSize=8;exitX=0;exitY=0.5;exitDx=0;exitDy=0;" edge="1" parent="1" source="85KC1QcqC5Q0MYwyu4rf-23" target="85KC1QcqC5Q0MYwyu4rf-20">
          <mxGeometry relative="1" as="geometry">
            <Array as="points">
              <mxPoint x="360" y="-1870" />
            </Array>
          </mxGeometry>
        </mxCell>
        <mxCell id="85KC1QcqC5Q0MYwyu4rf-93" value="&lt;font style=&quot;font-size: 13px;&quot;&gt;ложь&lt;/font&gt;" style="edgeLabel;html=1;align=center;verticalAlign=middle;resizable=0;points=[];fontSize=16;" vertex="1" connectable="0" parent="85KC1QcqC5Q0MYwyu4rf-81">
          <mxGeometry x="0.1667" y="6" relative="1" as="geometry">
            <mxPoint as="offset" />
          </mxGeometry>
        </mxCell>
        <mxCell id="85KC1QcqC5Q0MYwyu4rf-23" value="&lt;font size=&quot;1&quot;&gt;check_symmetry(word)&lt;/font&gt;" style="rhombus;whiteSpace=wrap;html=1;fontSize=16;" vertex="1" parent="1">
          <mxGeometry x="360" y="-1880" width="120" height="80" as="geometry" />
        </mxCell>
        <mxCell id="85KC1QcqC5Q0MYwyu4rf-30" style="edgeStyle=none;curved=1;rounded=0;orthogonalLoop=1;jettySize=auto;html=1;entryX=0.5;entryY=0;entryDx=0;entryDy=0;fontSize=12;startSize=8;endSize=8;exitX=0;exitY=0.5;exitDx=0;exitDy=0;" edge="1" parent="1" source="85KC1QcqC5Q0MYwyu4rf-25" target="85KC1QcqC5Q0MYwyu4rf-29">
          <mxGeometry relative="1" as="geometry">
            <mxPoint x="130" y="-2020" as="sourcePoint" />
          </mxGeometry>
        </mxCell>
        <mxCell id="85KC1QcqC5Q0MYwyu4rf-71" value="&lt;font style=&quot;font-size: 13px;&quot;&gt;ложь&lt;/font&gt;" style="edgeLabel;html=1;align=center;verticalAlign=middle;resizable=0;points=[];fontSize=16;" vertex="1" connectable="0" parent="85KC1QcqC5Q0MYwyu4rf-30">
          <mxGeometry x="-0.29" y="-2" relative="1" as="geometry">
            <mxPoint as="offset" />
          </mxGeometry>
        </mxCell>
        <mxCell id="85KC1QcqC5Q0MYwyu4rf-36" value="" style="edgeStyle=none;curved=1;rounded=0;orthogonalLoop=1;jettySize=auto;html=1;fontSize=12;startSize=8;endSize=8;" edge="1" parent="1" source="85KC1QcqC5Q0MYwyu4rf-25" target="85KC1QcqC5Q0MYwyu4rf-28">
          <mxGeometry relative="1" as="geometry" />
        </mxCell>
        <mxCell id="85KC1QcqC5Q0MYwyu4rf-73" value="&lt;font style=&quot;font-size: 13px;&quot;&gt;истина&lt;/font&gt;" style="edgeLabel;html=1;align=center;verticalAlign=middle;resizable=0;points=[];fontSize=16;" vertex="1" connectable="0" parent="85KC1QcqC5Q0MYwyu4rf-36">
          <mxGeometry x="-0.25" y="3" relative="1" as="geometry">
            <mxPoint as="offset" />
          </mxGeometry>
        </mxCell>
        <mxCell id="85KC1QcqC5Q0MYwyu4rf-25" value="v == 2" style="rhombus;whiteSpace=wrap;html=1;fontSize=16;" vertex="1" parent="1">
          <mxGeometry x="190" y="-2060" width="120" height="80" as="geometry" />
        </mxCell>
        <mxCell id="85KC1QcqC5Q0MYwyu4rf-28" value="цикл" style="rhombus;whiteSpace=wrap;html=1;fontSize=16;" vertex="1" parent="1">
          <mxGeometry x="190" y="-1940" width="120" height="80" as="geometry" />
        </mxCell>
        <mxCell id="85KC1QcqC5Q0MYwyu4rf-35" style="edgeStyle=none;curved=1;rounded=0;orthogonalLoop=1;jettySize=auto;html=1;entryX=0.5;entryY=0;entryDx=0;entryDy=0;fontSize=12;startSize=8;endSize=8;exitX=0;exitY=0.5;exitDx=0;exitDy=0;" edge="1" parent="1" source="85KC1QcqC5Q0MYwyu4rf-29" target="85KC1QcqC5Q0MYwyu4rf-33">
          <mxGeometry relative="1" as="geometry">
            <mxPoint x="-40" y="-1960" as="sourcePoint" />
          </mxGeometry>
        </mxCell>
        <mxCell id="85KC1QcqC5Q0MYwyu4rf-72" value="&lt;font style=&quot;font-size: 13px;&quot;&gt;ложь&lt;/font&gt;" style="edgeLabel;html=1;align=center;verticalAlign=middle;resizable=0;points=[];fontSize=16;" vertex="1" connectable="0" parent="85KC1QcqC5Q0MYwyu4rf-35">
          <mxGeometry x="-0.35" y="2" relative="1" as="geometry">
            <mxPoint y="-1" as="offset" />
          </mxGeometry>
        </mxCell>
        <mxCell id="85KC1QcqC5Q0MYwyu4rf-37" value="" style="edgeStyle=none;curved=1;rounded=0;orthogonalLoop=1;jettySize=auto;html=1;fontSize=12;startSize=8;endSize=8;" edge="1" parent="1" source="85KC1QcqC5Q0MYwyu4rf-29" target="85KC1QcqC5Q0MYwyu4rf-32">
          <mxGeometry relative="1" as="geometry" />
        </mxCell>
        <mxCell id="85KC1QcqC5Q0MYwyu4rf-74" value="&lt;font style=&quot;font-size: 13px;&quot;&gt;истина&lt;/font&gt;" style="edgeLabel;html=1;align=center;verticalAlign=middle;resizable=0;points=[];fontSize=16;" vertex="1" connectable="0" parent="85KC1QcqC5Q0MYwyu4rf-37">
          <mxGeometry y="1" relative="1" as="geometry">
            <mxPoint as="offset" />
          </mxGeometry>
        </mxCell>
        <mxCell id="85KC1QcqC5Q0MYwyu4rf-29" value="v == 3" style="rhombus;whiteSpace=wrap;html=1;fontSize=16;" vertex="1" parent="1">
          <mxGeometry x="10" y="-2000" width="120" height="80" as="geometry" />
        </mxCell>
        <mxCell id="85KC1QcqC5Q0MYwyu4rf-32" value="цикл" style="rhombus;whiteSpace=wrap;html=1;fontSize=16;" vertex="1" parent="1">
          <mxGeometry x="10" y="-1880" width="120" height="80" as="geometry" />
        </mxCell>
        <mxCell id="85KC1QcqC5Q0MYwyu4rf-38" value="" style="edgeStyle=none;curved=1;rounded=0;orthogonalLoop=1;jettySize=auto;html=1;fontSize=12;startSize=8;endSize=8;" edge="1" parent="1" source="85KC1QcqC5Q0MYwyu4rf-33" target="85KC1QcqC5Q0MYwyu4rf-34">
          <mxGeometry relative="1" as="geometry" />
        </mxCell>
        <mxCell id="85KC1QcqC5Q0MYwyu4rf-75" value="&lt;font style=&quot;font-size: 13px;&quot;&gt;истина&lt;/font&gt;" style="edgeLabel;html=1;align=center;verticalAlign=middle;resizable=0;points=[];fontSize=16;" vertex="1" connectable="0" parent="85KC1QcqC5Q0MYwyu4rf-38">
          <mxGeometry x="-0.45" y="3" relative="1" as="geometry">
            <mxPoint as="offset" />
          </mxGeometry>
        </mxCell>
        <mxCell id="85KC1QcqC5Q0MYwyu4rf-33" value="v == 4" style="rhombus;whiteSpace=wrap;html=1;fontSize=16;" vertex="1" parent="1">
          <mxGeometry x="-160" y="-1940" width="120" height="80" as="geometry" />
        </mxCell>
        <mxCell id="85KC1QcqC5Q0MYwyu4rf-34" value="цикл" style="rhombus;whiteSpace=wrap;html=1;fontSize=16;" vertex="1" parent="1">
          <mxGeometry x="-160" y="-1820" width="120" height="80" as="geometry" />
        </mxCell>
        <mxCell id="85KC1QcqC5Q0MYwyu4rf-39" value="" style="edgeStyle=none;curved=1;rounded=0;orthogonalLoop=1;jettySize=auto;html=1;fontSize=12;startSize=8;endSize=8;" edge="1" parent="1" target="85KC1QcqC5Q0MYwyu4rf-40">
          <mxGeometry relative="1" as="geometry">
            <mxPoint x="250" y="-1860" as="sourcePoint" />
          </mxGeometry>
        </mxCell>
        <mxCell id="85KC1QcqC5Q0MYwyu4rf-40" value="&lt;font size=&quot;1&quot;&gt;if_first_letter_doubled(word)&lt;/font&gt;" style="rhombus;whiteSpace=wrap;html=1;fontSize=16;" vertex="1" parent="1">
          <mxGeometry x="190" y="-1820" width="120" height="80" as="geometry" />
        </mxCell>
        <mxCell id="85KC1QcqC5Q0MYwyu4rf-45" value="" style="edgeStyle=none;curved=1;rounded=0;orthogonalLoop=1;jettySize=auto;html=1;fontSize=12;startSize=8;endSize=8;" edge="1" parent="1" target="85KC1QcqC5Q0MYwyu4rf-46">
          <mxGeometry relative="1" as="geometry">
            <mxPoint x="70" y="-1800" as="sourcePoint" />
          </mxGeometry>
        </mxCell>
        <mxCell id="85KC1QcqC5Q0MYwyu4rf-46" value="&lt;font size=&quot;1&quot;&gt;not_double(word)&lt;/font&gt;" style="rhombus;whiteSpace=wrap;html=1;fontSize=16;" vertex="1" parent="1">
          <mxGeometry x="10" y="-1760" width="120" height="80" as="geometry" />
        </mxCell>
        <mxCell id="85KC1QcqC5Q0MYwyu4rf-47" value="" style="edgeStyle=none;curved=1;rounded=0;orthogonalLoop=1;jettySize=auto;html=1;fontSize=12;startSize=8;endSize=8;" edge="1" parent="1" target="85KC1QcqC5Q0MYwyu4rf-48">
          <mxGeometry relative="1" as="geometry">
            <mxPoint x="-100" y="-1740" as="sourcePoint" />
          </mxGeometry>
        </mxCell>
        <mxCell id="85KC1QcqC5Q0MYwyu4rf-48" value="&lt;font size=&quot;1&quot;&gt;is_letter_occured_me2(word)&lt;/font&gt;" style="rhombus;whiteSpace=wrap;html=1;fontSize=16;" vertex="1" parent="1">
          <mxGeometry x="-160" y="-1700" width="120" height="80" as="geometry" />
        </mxCell>
        <mxCell id="85KC1QcqC5Q0MYwyu4rf-49" value="word" style="shape=parallelogram;perimeter=parallelogramPerimeter;whiteSpace=wrap;html=1;fixedSize=1;fontSize=16;" vertex="1" parent="1">
          <mxGeometry x="360" y="-1760" width="120" height="60" as="geometry" />
        </mxCell>
        <mxCell id="85KC1QcqC5Q0MYwyu4rf-51" value="" style="edgeStyle=none;curved=1;rounded=0;orthogonalLoop=1;jettySize=auto;html=1;fontSize=12;startSize=8;endSize=8;" edge="1" parent="1" target="85KC1QcqC5Q0MYwyu4rf-52">
          <mxGeometry relative="1" as="geometry">
            <mxPoint x="250" y="-1740" as="sourcePoint" />
          </mxGeometry>
        </mxCell>
        <mxCell id="85KC1QcqC5Q0MYwyu4rf-78" value="&lt;font style=&quot;font-size: 13px;&quot;&gt;истина&lt;/font&gt;" style="edgeLabel;html=1;align=center;verticalAlign=middle;resizable=0;points=[];fontSize=16;" vertex="1" connectable="0" parent="85KC1QcqC5Q0MYwyu4rf-51">
          <mxGeometry x="-0.15" y="2" relative="1" as="geometry">
            <mxPoint as="offset" />
          </mxGeometry>
        </mxCell>
        <mxCell id="85KC1QcqC5Q0MYwyu4rf-52" value="word" style="shape=parallelogram;perimeter=parallelogramPerimeter;whiteSpace=wrap;html=1;fixedSize=1;fontSize=16;" vertex="1" parent="1">
          <mxGeometry x="190" y="-1700" width="120" height="60" as="geometry" />
        </mxCell>
        <mxCell id="85KC1QcqC5Q0MYwyu4rf-53" value="" style="edgeStyle=none;curved=1;rounded=0;orthogonalLoop=1;jettySize=auto;html=1;fontSize=12;startSize=8;endSize=8;" edge="1" parent="1" target="85KC1QcqC5Q0MYwyu4rf-54">
          <mxGeometry relative="1" as="geometry">
            <mxPoint x="70" y="-1680" as="sourcePoint" />
          </mxGeometry>
        </mxCell>
        <mxCell id="85KC1QcqC5Q0MYwyu4rf-79" value="&lt;font style=&quot;font-size: 13px;&quot;&gt;истина&lt;/font&gt;" style="edgeLabel;html=1;align=center;verticalAlign=middle;resizable=0;points=[];fontSize=16;" vertex="1" connectable="0" parent="85KC1QcqC5Q0MYwyu4rf-53">
          <mxGeometry x="-0.25" y="-6" relative="1" as="geometry">
            <mxPoint as="offset" />
          </mxGeometry>
        </mxCell>
        <mxCell id="85KC1QcqC5Q0MYwyu4rf-54" value="word" style="shape=parallelogram;perimeter=parallelogramPerimeter;whiteSpace=wrap;html=1;fixedSize=1;fontSize=16;" vertex="1" parent="1">
          <mxGeometry x="10" y="-1640" width="120" height="60" as="geometry" />
        </mxCell>
        <mxCell id="85KC1QcqC5Q0MYwyu4rf-55" value="" style="edgeStyle=none;curved=1;rounded=0;orthogonalLoop=1;jettySize=auto;html=1;fontSize=12;startSize=8;endSize=8;" edge="1" parent="1" target="85KC1QcqC5Q0MYwyu4rf-56">
          <mxGeometry relative="1" as="geometry">
            <mxPoint x="-100" y="-1620" as="sourcePoint" />
          </mxGeometry>
        </mxCell>
        <mxCell id="85KC1QcqC5Q0MYwyu4rf-80" value="&lt;div&gt;&lt;font style=&quot;font-size: 13px;&quot;&gt;истина&lt;/font&gt;&lt;/div&gt;" style="edgeLabel;html=1;align=center;verticalAlign=middle;resizable=0;points=[];fontSize=16;" vertex="1" connectable="0" parent="85KC1QcqC5Q0MYwyu4rf-55">
          <mxGeometry x="-0.35" y="-2" relative="1" as="geometry">
            <mxPoint as="offset" />
          </mxGeometry>
        </mxCell>
        <mxCell id="85KC1QcqC5Q0MYwyu4rf-56" value="word" style="shape=parallelogram;perimeter=parallelogramPerimeter;whiteSpace=wrap;html=1;fixedSize=1;fontSize=16;" vertex="1" parent="1">
          <mxGeometry x="-160" y="-1580" width="120" height="60" as="geometry" />
        </mxCell>
        <mxCell id="85KC1QcqC5Q0MYwyu4rf-57" value="Конец" style="ellipse;whiteSpace=wrap;html=1;fontSize=16;" vertex="1" parent="1">
          <mxGeometry x="560" y="-1440" width="120" height="80" as="geometry" />
        </mxCell>
        <mxCell id="85KC1QcqC5Q0MYwyu4rf-61" value="" style="endArrow=none;html=1;rounded=0;fontSize=12;startSize=8;endSize=8;curved=1;" edge="1" parent="1">
          <mxGeometry width="50" height="50" relative="1" as="geometry">
            <mxPoint x="-100.5" y="-1480" as="sourcePoint" />
            <mxPoint x="-100.5" y="-1520" as="targetPoint" />
          </mxGeometry>
        </mxCell>
        <mxCell id="85KC1QcqC5Q0MYwyu4rf-62" value="" style="endArrow=none;html=1;rounded=0;fontSize=12;startSize=8;endSize=8;curved=1;" edge="1" parent="1">
          <mxGeometry width="50" height="50" relative="1" as="geometry">
            <mxPoint x="-100" y="-1480" as="sourcePoint" />
            <mxPoint x="620" y="-1480" as="targetPoint" />
          </mxGeometry>
        </mxCell>
        <mxCell id="85KC1QcqC5Q0MYwyu4rf-63" value="" style="endArrow=classic;html=1;rounded=0;fontSize=12;startSize=8;endSize=8;curved=1;entryX=0.5;entryY=0;entryDx=0;entryDy=0;" edge="1" parent="1" target="85KC1QcqC5Q0MYwyu4rf-57">
          <mxGeometry width="50" height="50" relative="1" as="geometry">
            <mxPoint x="620" y="-1480" as="sourcePoint" />
            <mxPoint x="670" y="-1530" as="targetPoint" />
          </mxGeometry>
        </mxCell>
        <mxCell id="85KC1QcqC5Q0MYwyu4rf-66" value="" style="endArrow=none;html=1;rounded=0;fontSize=12;startSize=8;endSize=8;curved=1;" edge="1" parent="1">
          <mxGeometry width="50" height="50" relative="1" as="geometry">
            <mxPoint x="69.5" y="-1480" as="sourcePoint" />
            <mxPoint x="69.5" y="-1580" as="targetPoint" />
          </mxGeometry>
        </mxCell>
        <mxCell id="85KC1QcqC5Q0MYwyu4rf-67" value="" style="endArrow=none;html=1;rounded=0;fontSize=12;startSize=8;endSize=8;curved=1;" edge="1" parent="1">
          <mxGeometry width="50" height="50" relative="1" as="geometry">
            <mxPoint x="250" y="-1480" as="sourcePoint" />
            <mxPoint x="250" y="-1640" as="targetPoint" />
          </mxGeometry>
        </mxCell>
        <mxCell id="85KC1QcqC5Q0MYwyu4rf-68" value="" style="endArrow=none;html=1;rounded=0;fontSize=12;startSize=8;endSize=8;curved=1;" edge="1" parent="1">
          <mxGeometry width="50" height="50" relative="1" as="geometry">
            <mxPoint x="420" y="-1480" as="sourcePoint" />
            <mxPoint x="420" y="-1700" as="targetPoint" />
          </mxGeometry>
        </mxCell>
        <mxCell id="85KC1QcqC5Q0MYwyu4rf-83" style="edgeStyle=none;curved=1;rounded=0;orthogonalLoop=1;jettySize=auto;html=1;entryX=0;entryY=0.5;entryDx=0;entryDy=0;fontSize=12;startSize=8;endSize=8;exitX=0;exitY=0.5;exitDx=0;exitDy=0;" edge="1" parent="1">
          <mxGeometry relative="1" as="geometry">
            <mxPoint x="190" y="-1780" as="sourcePoint" />
            <mxPoint x="190" y="-1900" as="targetPoint" />
            <Array as="points">
              <mxPoint x="190" y="-1810" />
            </Array>
          </mxGeometry>
        </mxCell>
        <mxCell id="85KC1QcqC5Q0MYwyu4rf-84" value="&lt;font style=&quot;font-size: 13px;&quot;&gt;ложь&lt;/font&gt;" style="edgeLabel;html=1;align=center;verticalAlign=middle;resizable=0;points=[];fontSize=16;" vertex="1" connectable="0" parent="85KC1QcqC5Q0MYwyu4rf-83">
          <mxGeometry x="-0.0167" relative="1" as="geometry">
            <mxPoint as="offset" />
          </mxGeometry>
        </mxCell>
        <mxCell id="85KC1QcqC5Q0MYwyu4rf-89" style="edgeStyle=none;curved=1;rounded=0;orthogonalLoop=1;jettySize=auto;html=1;entryX=0;entryY=0.5;entryDx=0;entryDy=0;fontSize=12;startSize=8;endSize=8;exitX=0;exitY=0.5;exitDx=0;exitDy=0;" edge="1" parent="1">
          <mxGeometry relative="1" as="geometry">
            <mxPoint x="9" y="-1720" as="sourcePoint" />
            <mxPoint x="9" y="-1840" as="targetPoint" />
            <Array as="points">
              <mxPoint x="9" y="-1750" />
            </Array>
          </mxGeometry>
        </mxCell>
        <mxCell id="85KC1QcqC5Q0MYwyu4rf-90" value="&lt;font style=&quot;font-size: 13px;&quot;&gt;ложь&lt;/font&gt;" style="edgeLabel;html=1;align=center;verticalAlign=middle;resizable=0;points=[];fontSize=16;" vertex="1" connectable="0" parent="85KC1QcqC5Q0MYwyu4rf-89">
          <mxGeometry x="-0.0167" relative="1" as="geometry">
            <mxPoint as="offset" />
          </mxGeometry>
        </mxCell>
        <mxCell id="85KC1QcqC5Q0MYwyu4rf-91" style="edgeStyle=none;curved=1;rounded=0;orthogonalLoop=1;jettySize=auto;html=1;entryX=0;entryY=0.5;entryDx=0;entryDy=0;fontSize=12;startSize=8;endSize=8;exitX=0;exitY=0.5;exitDx=0;exitDy=0;" edge="1" parent="1">
          <mxGeometry relative="1" as="geometry">
            <mxPoint x="-160" y="-1660" as="sourcePoint" />
            <mxPoint x="-160" y="-1780" as="targetPoint" />
            <Array as="points">
              <mxPoint x="-160" y="-1690" />
            </Array>
          </mxGeometry>
        </mxCell>
        <mxCell id="85KC1QcqC5Q0MYwyu4rf-92" value="&lt;font style=&quot;font-size: 13px;&quot;&gt;ложь&lt;/font&gt;" style="edgeLabel;html=1;align=center;verticalAlign=middle;resizable=0;points=[];fontSize=16;" vertex="1" connectable="0" parent="85KC1QcqC5Q0MYwyu4rf-91">
          <mxGeometry x="-0.0167" relative="1" as="geometry">
            <mxPoint as="offset" />
          </mxGeometry>
        </mxCell>
      </root>
    </mxGraphModel>
  </diagram>
</mxfile>
